<svg xmlns="http://www.w3.org/2000/svg" width="40" height="40" viewBox="0 0 512 512" fill="none" aria-hidden="true">
  <!-- Shield with check: source file from project assets (Illustrator export); colors adapted for LP -->
  <path
    fill="#5a8f7f"
    d="M256,0c4.6,0,9.2,1,13.4,2.9l188.4,79.9c22,9.3,38.4,31,38.3,57.2-.5,99.2-41.3,280.7-213.6,363.2-16.7,8-36.1,8-52.8,0C57.3,420.7,16.6,239.2,16.1,140c-.1-26.2,16.3-47.9,38.3-57.2L242.7,2.9C246.9,1,251.4,0,256,0Z"
  />
  <path
    fill="#ffffff"
    d="M362.48,181.24c-1.07-6.7-4.46-12.66-9.64-16.97-.45-.42-.92-.82-1.43-1.18-6.01-4.37-13.35-6.13-20.69-4.96-7.32,1.17-13.75,5.11-18.11,11.1l-87.08,119.71-30.1-30.1c-10.83-10.83-28.46-10.83-39.29,0-5.25,5.25-8.14,12.22-8.14,19.65s2.89,14.4,8.14,19.65l53.09,53.09c5.25,5.25,12.27,8.15,19.56,8.15.77,0,1.55-.03,2.33-.1,8.12-.69,15.49-4.84,20.2-11.35l106.18-146c4.37-6.01,6.13-13.35,4.96-20.69Z"
  />
</svg>
